<svg width="1200" height="220" viewBox="0 0 1200 220" fill="none" xmlns="http://www.w3.org/2000/svg" xmlns:xlink="http://www.w3.org/1999/xlink" role="img">
  <defs><symbol id="ic-selenium" viewBox="0 0 24 24"><path d="M23.174 3.468l-7.416 8.322a.228.228 0 0 1-.33 0l-3.786-3.9a.228.228 0 0 1 0-.282L12.872 6a.228.228 0 0 1 .366 0l2.106 2.346a.228.228 0 0 0 .342 0l5.94-8.094A.162.162 0 0 0 21.5 0H.716a.174.174 0 0 0-.174.174v23.652A.174.174 0 0 0 .716 24h22.566a.174.174 0 0 0 .174-.174V3.6a.162.162 0 0 0-.282-.132zM6.932 21.366a5.706 5.706 0 0 1-4.05-1.44.222.222 0 0 1 0-.288l.882-1.236a.222.222 0 0 1 .33-.036 4.338 4.338 0 0 0 2.964 1.158c1.158 0 1.722-.534 1.722-1.098 0-1.752-5.7-.552-5.7-4.278 0-1.65 1.428-3 3.756-3a5.568 5.568 0 0 1 3.708 1.242.222.222 0 0 1 0 .3l-.906 1.2a.222.222 0 0 1-.318.036 4.29 4.29 0 0 0-2.706-.936c-.906 0-1.41.402-1.41.996 0 1.572 5.688.522 5.688 4.2.006 1.812-1.284 3.18-3.96 3.18zm12.438-3.432a.192.192 0 0 1-.192.192h-5.202a.06.06 0 0 0-.06.066 1.986 1.986 0 0 0 2.106 1.638 3.264 3.264 0 0 0 1.8-.6.192.192 0 0 1 .276.042l.636.93a.198.198 0 0 1-.042.264 4.71 4.71 0 0 1-2.892.9 3.726 3.726 0 0 1-3.93-3.87 3.744 3.744 0 0 1 3.81-3.852c2.196 0 3.684 1.644 3.684 4.05zm-3.684-2.748a1.758 1.758 0 0 0-1.8 1.56.06.06 0 0 0 .06.066h3.492a.06.06 0 0 0 .06-.066 1.698 1.698 0 0 0-1.812-1.56Z"/></symbol><symbol id="ic-playwright" viewBox="0 0 128 128"><path d="M43.662 70.898c-4.124 1.17-6.829 3.222-8.611 5.272 1.707-1.494 3.993-2.865 7.077-3.739 3.155-.894 5.846-.888 8.069-.459v-1.739c-1.897-.173-4.072-.035-6.536.664ZM34.863 56.28l-15.314 4.035s.279.394.796.92l12.984-3.421s-.184 2.371-1.782 4.492c3.022-2.287 3.316-6.025 3.316-6.025Zm12.819 35.991C26.131 98.076 14.729 73.1 11.277 60.137 9.682 54.153 8.986 49.621 8.8 46.697a4.955 4.955 0 0 1 .011-.794c-1.118.068-1.653.649-1.544 2.328.186 2.923.882 7.454 2.477 13.44 3.45 12.961 14.854 37.937 36.405 32.132 4.691-1.264 8.215-3.565 10.86-6.504-2.438 2.202-5.49 3.937-9.327 4.972Zm4.05-51.276v1.534h8.453c-.173-.543-.348-1.032-.522-1.534h-7.932Z"/><path d="M62.074 53.627c3.802 1.08 5.812 3.745 6.875 6.104l4.239 1.204s-.578-8.255-8.045-10.376c-6.985-1.985-11.284 3.881-11.807 4.64 2.032-1.448 4.999-2.633 8.738-1.572Zm33.741 6.142c-6.992-1.994-11.289 3.884-11.804 4.633 2.034-1.446 4.999-2.632 8.737-1.566 3.796 1.081 5.804 3.743 6.87 6.104l4.245 1.208s-.588-8.257-8.048-10.379Zm-4.211 21.766-35.261-9.858s.382 1.935 1.846 4.441l29.688 8.3c2.444-1.414 3.726-2.883 3.726-2.883Zm-24.446 21.218c-27.92-7.485-24.544-43.059-20.027-59.916 1.86-6.947 3.772-12.11 5.358-15.572-.946-.195-1.73.304-2.504 1.878-1.684 3.415-3.837 8.976-5.921 16.76-4.516 16.857-7.892 52.429 20.027 59.914 13.159 3.525 23.411-1.833 31.053-10.247-7.254 6.57-16.515 10.253-27.986 7.182Z"/><path d="M51.732 83.935v-7.179l-19.945 5.656s1.474-8.563 11.876-11.514c3.155-.894 5.846-.888 8.069-.459V40.995h9.987c-1.087-3.36-2.139-5.947-3.023-7.744-1.461-2.975-2.96-1.003-6.361 1.842-2.396 2.001-8.45 6.271-17.561 8.726-9.111 2.457-16.476 1.805-19.55 1.273-4.357-.752-6.636-1.708-6.422 1.605.186 2.923.882 7.455 2.477 13.44 3.45 12.962 14.854 37.937 36.405 32.132 5.629-1.517 9.603-4.515 12.357-8.336h-8.309v.002Zm-32.185-23.62 15.316-4.035s-.446 5.892-6.188 7.405c-5.743 1.512-9.128-3.371-9.128-3.371Z"/><path d="M109.372 41.336c-3.981.698-13.532 1.567-25.336-1.596-11.807-3.162-19.64-8.692-22.744-11.292-4.4-3.685-6.335-6.246-8.24-2.372-1.684 3.417-3.837 8.977-5.921 16.762-4.516 16.857-7.892 52.429 20.027 59.914 27.912 7.479 42.772-25.017 47.289-41.875 2.084-7.783 2.998-13.676 3.25-17.476.287-4.305-2.67-3.055-8.324-2.064ZM53.28 55.282s4.4-6.843 11.862-4.722c7.467 2.121 8.045 10.376 8.045 10.376L53.28 55.282Zm18.215 30.706c-13.125-3.845-15.15-14.311-15.15-14.311l35.259 9.858c0-.002-7.117 8.25-20.109 4.453Zm12.466-21.51s4.394-6.838 11.854-4.711c7.46 2.124 8.048 10.379 8.048 10.379l-19.902-5.668Z"/><path d="M44.762 78.733 31.787 82.41s1.41-8.029 10.968-11.212l-7.347-27.573-.635.193c-9.111 2.457-16.476 1.805-19.55 1.273-4.357-.751-6.636-1.708-6.422 1.606.186 2.923.882 7.454 2.477 13.44 3.45 12.961 14.854 37.937 36.405 32.132l.635-.199-3.555-13.337ZM19.548 60.315l15.316-4.035s-.446 5.892-6.188 7.405c-5.743 1.512-9.128-3.371-9.128-3.371Z"/><path d="m72.086 86.132-.594-.144c-13.125-3.844-15.15-14.311-15.15-14.311l18.182 5.082L84.15 39.77l-.116-.031c-11.807-3.162-19.64-8.692-22.744-11.292-4.4-3.685-6.335-6.246-8.24-2.372-1.682 3.417-3.836 8.977-5.92 16.762-4.516 16.857-7.892 52.429 20.027 59.914l.572.129 4.357-16.748Zm-18.807-30.85s4.4-6.843 11.862-4.722c7.467 2.121 8.045 10.376 8.045 10.376l-19.907-5.654Z"/><path d="m45.423 78.544-3.48.988c.822 4.634 2.271 9.082 4.545 13.011.396-.087.788-.163 1.192-.273a25.224 25.224 0 0 0 2.98-1.023c-2.541-3.771-4.222-8.114-5.237-12.702Zm-1.359-32.64c-1.788 6.674-3.388 16.28-2.948 25.915a20.061 20.061 0 0 1 2.546-.923l.644-.144c-.785-10.292.912-20.78 2.825-27.915a139.404 139.404 0 0 1 1.455-5.05 45.171 45.171 0 0 1-2.578 1.53 132.234 132.234 0 0 0-1.944 6.587Z"/></symbol><symbol id="ic-java" viewBox="0 0 24 24"><path d="M11.915 0 11.7.215C9.515 2.4 7.47 6.39 6.046 10.483c-1.064 1.024-3.633 2.81-3.711 3.551-.093.87 1.746 2.611 1.55 3.235-.198.625-1.304 1.408-1.014 1.939.1.188.823.011 1.277-.491a13.389 13.389 0 0 0-.017 2.14c.076.906.27 1.668.643 2.232.372.563.956.911 1.667.911.397 0 .727-.114 1.024-.264.298-.149.571-.33.91-.5.68-.34 1.634-.666 3.53-.604 1.903.062 2.872.39 3.559.704.687.314 1.15.664 1.925.664.767 0 1.395-.336 1.807-.9.412-.563.631-1.33.72-2.24.06-.623.055-1.32 0-2.066.454.45 1.117.604 1.213.424.29-.53-.816-1.314-1.013-1.937-.198-.624 1.642-2.366 1.549-3.236-.08-.748-2.707-2.568-3.748-3.586C16.428 6.374 14.308 2.394 12.13.215zm.175 6.038a2.95 2.95 0 0 1 2.943 2.942 2.95 2.95 0 0 1-2.943 2.943A2.95 2.95 0 0 1 9.148 8.98a2.95 2.95 0 0 1 2.942-2.942zM8.685 7.983a3.515 3.515 0 0 0-.145.997c0 1.951 1.6 3.55 3.55 3.55 1.95 0 3.55-1.598 3.55-3.55 0-.329-.046-.648-.132-.951.334.095.64.208.915.336a42.699 42.699 0 0 1 2.042 5.829c.678 2.545 1.01 4.92.846 6.607-.082.844-.29 1.51-.606 1.94-.315.431-.713.651-1.315.651-.593 0-.932-.27-1.673-.61-.741-.338-1.825-.694-3.792-.758-1.974-.064-3.073.293-3.821.669-.375.188-.659.373-.911.5s-.466.2-.752.2c-.53 0-.876-.209-1.16-.64-.285-.43-.474-1.101-.545-1.948-.141-1.693.176-4.069.823-6.614a43.155 43.155 0 0 1 1.934-5.783c.348-.167.749-.31 1.192-.425zm-3.382 4.362a.216.216 0 0 1 .13.031c-.166.56-.323 1.116-.463 1.665a33.849 33.849 0 0 0-.547 2.555 3.9 3.9 0 0 0-.2-.39c-.58-1.012-.914-1.642-1.16-2.08.315-.24 1.679-1.755 2.24-1.781zm13.394.01c.562.027 1.926 1.543 2.24 1.783-.246.438-.58 1.068-1.16 2.08a4.428 4.428 0 0 0-.163.309 32.354 32.354 0 0 0-.562-2.49 40.579 40.579 0 0 0-.482-1.652.216.216 0 0 1 .127-.03z"/></symbol><symbol id="ic-typescript" viewBox="0 0 24 24"><path d="M1.125 0C.502 0 0 .502 0 1.125v21.75C0 23.498.502 24 1.125 24h21.75c.623 0 1.125-.502 1.125-1.125V1.125C24 .502 23.498 0 22.875 0zm17.363 9.75c.612 0 1.154.037 1.627.111a6.38 6.38 0 0 1 1.306.34v2.458a3.95 3.95 0 0 0-.643-.361 5.093 5.093 0 0 0-.717-.26 5.453 5.453 0 0 0-1.426-.2c-.3 0-.573.028-.819.086a2.1 2.1 0 0 0-.623.242c-.17.104-.3.229-.393.374a.888.888 0 0 0-.14.49c0 .196.053.373.156.529.104.156.252.304.443.444s.423.276.696.41c.273.135.582.274.926.416.47.197.892.407 1.266.628.374.222.695.473.963.753.268.279.472.598.614.957.142.359.214.776.214 1.253 0 .657-.125 1.21-.373 1.656a3.033 3.033 0 0 1-1.012 1.085 4.38 4.38 0 0 1-1.487.596c-.566.12-1.163.18-1.79.18a9.916 9.916 0 0 1-1.84-.164 5.544 5.544 0 0 1-1.512-.493v-2.63a5.033 5.033 0 0 0 3.237 1.2c.333 0 .624-.03.872-.09.249-.06.456-.144.623-.25.166-.108.29-.234.373-.38a1.023 1.023 0 0 0-.074-1.089 2.12 2.12 0 0 0-.537-.5 5.597 5.597 0 0 0-.807-.444 27.72 27.72 0 0 0-1.007-.436c-.918-.383-1.602-.852-2.053-1.405-.45-.553-.676-1.222-.676-2.005 0-.614.123-1.141.369-1.582.246-.441.58-.804 1.004-1.089a4.494 4.494 0 0 1 1.47-.629 7.536 7.536 0 0 1 1.77-.201zm-15.113.188h9.563v2.166H9.506v9.646H6.789v-9.646H3.375z"/></symbol><symbol id="ic-copilot" viewBox="0 0 24 24"><path d="M23.922 16.997C23.061 18.492 18.063 22.02 12 22.02 5.937 22.02.939 18.492.078 16.997A.641.641 0 0 1 0 16.741v-2.869a.883.883 0 0 1 .053-.22c.372-.935 1.347-2.292 2.605-2.656.167-.429.414-1.055.644-1.517a10.098 10.098 0 0 1-.052-1.086c0-1.331.282-2.499 1.132-3.368.397-.406.89-.717 1.474-.952C7.255 2.937 9.248 1.98 11.978 1.98c2.731 0 4.767.957 6.166 2.093.584.235 1.077.546 1.474.952.85.869 1.132 2.037 1.132 3.368 0 .368-.014.733-.052 1.086.23.462.477 1.088.644 1.517 1.258.364 2.233 1.721 2.605 2.656a.841.841 0 0 1 .053.22v2.869a.641.641 0 0 1-.078.256Zm-11.75-5.992h-.344a4.359 4.359 0 0 1-.355.508c-.77.947-1.918 1.492-3.508 1.492-1.725 0-2.989-.359-3.782-1.259a2.137 2.137 0 0 1-.085-.104L4 11.746v6.585c1.435.779 4.514 2.179 8 2.179 3.486 0 6.565-1.4 8-2.179v-6.585l-.098-.104s-.033.045-.085.104c-.793.9-2.057 1.259-3.782 1.259-1.59 0-2.738-.545-3.508-1.492a4.359 4.359 0 0 1-.355-.508Zm2.328 3.25c.549 0 1 .451 1 1v2c0 .549-.451 1-1 1-.549 0-1-.451-1-1v-2c0-.549.451-1 1-1Zm-5 0c.549 0 1 .451 1 1v2c0 .549-.451 1-1 1-.549 0-1-.451-1-1v-2c0-.549.451-1 1-1Zm3.313-6.185c.136 1.057.403 1.913.878 2.497.442.544 1.134.938 2.344.938 1.573 0 2.292-.337 2.657-.751.384-.435.558-1.15.558-2.361 0-1.14-.243-1.847-.705-2.319-.477-.488-1.319-.862-2.824-1.025-1.487-.161-2.192.138-2.533.529-.269.307-.437.808-.438 1.578v.021c0 .265.021.562.063.893Zm-1.626 0c.042-.331.063-.628.063-.894v-.02c-.001-.77-.169-1.271-.438-1.578-.341-.391-1.046-.69-2.533-.529-1.505.163-2.347.537-2.824 1.025-.462.472-.705 1.179-.705 2.319 0 1.211.175 1.926.558 2.361.365.414 1.084.751 2.657.751 1.21 0 1.902-.394 2.344-.938.475-.584.742-1.44.878-2.497Z"/></symbol><symbol id="ic-claude" viewBox="0 0 24 24"><path d="m4.7144 15.9555 4.7174-2.6471.079-.2307-.079-.1275h-.2307l-.7893-.0486-2.6956-.0729-2.3375-.0971-2.2646-.1214-.5707-.1215-.5343-.7042.0546-.3522.4797-.3218.686.0608 1.5179.1032 2.2767.1578 1.6514.0972 2.4468.255h.3886l.0546-.1579-.1336-.0971-.1032-.0972L6.973 9.8356l-2.55-1.6879-1.3356-.9714-.7225-.4918-.3643-.4614-.1578-1.0078.6557-.7225.8803.0607.2246.0607.8925.686 1.9064 1.4754 2.4893 1.8336.3643.3035.1457-.1032.0182-.0728-.164-.2733-1.3539-2.4467-1.445-2.4893-.6435-1.032-.17-.6194c-.0607-.255-.1032-.4674-.1032-.7285L6.287.1335 6.6997 0l.9957.1336.419.3642.6192 1.4147 1.0018 2.2282 1.5543 3.0296.4553.8985.2429.8318.091.255h.1579v-.1457l.1275-1.706.2368-2.0947.2307-2.6957.0789-.7589.3764-.9107.7468-.4918.5828.2793.4797.686-.0668.4433-.2853 1.8517-.5586 2.9021-.3643 1.9429h.2125l.2429-.2429.9835-1.3053 1.6514-2.0643.7286-.8196.85-.9046.5464-.4311h1.0321l.759 1.1293-.34 1.1657-1.0625 1.3478-.8804 1.1414-1.2628 1.7-.7893 1.36.0729.1093.1882-.0183 2.8535-.607 1.5421-.2794 1.8396-.3157.8318.3886.091.3946-.3278.8075-1.967.4857-2.3072.4614-3.4364.8136-.0425.0304.0486.0607 1.5482.1457.6618.0364h1.621l3.0175.2247.7892.522.4736.6376-.079.4857-1.2142.6193-1.6393-.3886-3.825-.9107-1.3113-.3279h-.1822v.1093l1.0929 1.0686 2.0035 1.8092 2.5075 2.3314.1275.5768-.3218.4554-.34-.0486-2.2039-1.6575-.85-.7468-1.9246-1.621h-.1275v.17l.4432.6496 2.3436 3.5214.1214 1.0807-.17.3521-.6071.2125-.6679-.1214-1.3721-1.9246L14.38 17.959l-1.1414-1.9428-.1397.079-.674 7.2552-.3156.3703-.7286.2793-.6071-.4614-.3218-.7468.3218-1.4753.3886-1.9246.3157-1.53.2853-1.9004.17-.6314-.0121-.0425-.1397.0182-1.4328 1.9672-2.1796 2.9446-1.7243 1.8456-.4128.164-.7164-.3704.0667-.6618.4008-.5889 2.386-3.0357 1.4389-1.882.929-1.0868-.0062-.1579h-.0546l-6.3385 4.1164-1.1293.1457-.4857-.4554.0608-.7467.2307-.2429 1.9064-1.3114Z"/></symbol><symbol id="ic-github" viewBox="0 0 24 24"><path d="M12 .297c-6.63 0-12 5.373-12 12 0 5.303 3.438 9.8 8.205 11.385.6.113.82-.258.82-.577 0-.285-.01-1.04-.015-2.04-3.338.724-4.042-1.61-4.042-1.61C4.422 18.07 3.633 17.7 3.633 17.7c-1.087-.744.084-.729.084-.729 1.205.084 1.838 1.236 1.838 1.236 1.07 1.835 2.809 1.305 3.495.998.108-.776.417-1.305.76-1.605-2.665-.3-5.466-1.332-5.466-5.93 0-1.31.465-2.38 1.235-3.22-.135-.303-.54-1.523.105-3.176 0 0 1.005-.322 3.3 1.23.96-.267 1.98-.399 3-.405 1.02.006 2.04.138 3 .405 2.28-1.552 3.285-1.23 3.285-1.23.645 1.653.24 2.873.12 3.176.765.84 1.23 1.91 1.23 3.22 0 4.61-2.805 5.625-5.475 5.92.42.36.81 1.096.81 2.22 0 1.606-.015 2.896-.015 3.286 0 .315.21.69.825.57C20.565 22.092 24 17.592 24 12.297c0-6.627-5.373-12-12-12"/></symbol><symbol id="ic-git" viewBox="0 0 24 24"><path d="M13.09 23.549a1.54 1.54 0 0 1-2.18 0L.451 13.089a1.54 1.54 0 0 1 0-2.179l7.191-7.19 2.733 2.733a1.85 1.85 0 0 0 .964 2.326v6.66a1.849 1.849 0 1 0 1.54 0V8.957l2.508 2.508a1.85 1.85 0 1 0 1.09-1.09l-2.634-2.634a1.85 1.85 0 0 0-2.378-2.377L8.73 2.63 10.91.451a1.54 1.54 0 0 1 2.179 0l10.459 10.46a1.54 1.54 0 0 1 0 2.179z"/></symbol><symbol id="ic-jenkins" viewBox="0 0 24 24"><path d="M2.872 24h-.975a3.866 3.866 0 01-.07-.197c-.215-.666-.594-1.49-.692-2.154-.146-.984.78-1.039 1.374-1.465.915-.66 1.635-1.025 2.627-1.62.295-.179 1.182-.624 1.281-.829.201-.408-.345-.982-.49-1.3-.225-.507-.345-.937-.376-1.435-.824-.13-1.455-.627-1.844-1.185-.63-.925-1.066-2.635-.525-3.936.045-.103.254-.305.285-.463.06-.308-.105-.72-.12-1.048-.06-1.692.284-3.15 1.425-3.66.463-1.84 2.113-2.453 3.673-3.367.58-.342 1.224-.562 1.89-.807 2.372-.877 6.027-.712 7.994.783.836.633 2.176 1.97 2.656 2.939 1.262 2.555 1.17 6.825.287 9.934-.12.421-.29 1.032-.533 1.533-.168.35-.689 1.05-.625 1.36.064.314 1.19 1.17 1.432 1.395.434.422 1.26.975 1.324 1.5.07.557-.248 1.336-.41 1.875-.217.721-.436 1.441-.654 2.131H2.87zm11.104-3.54c-.545-.3-1.361-.622-2.065-.757-.87-.164-.78 1.188-.75 1.994.03.643.36 1.316.51 1.744.076.197.09.41.256.449.3.068 1.29-.326 1.575-.479.6-.328 1.064-.844 1.574-1.189.016-.17.016-.34.03-.508a2.648 2.648 0 00-1.095-.277c.314-.15.75-.15 1.035-.332l.016-.193c-.496-.03-.69-.254-1.021-.436zm7.454 2.935a17.78 17.78 0 00.465-1.752c.06-.287.215-.918.178-1.176-.059-.459-.684-.799-1.004-1.086-.584-.525-.95-.975-1.56-1.469-.249.375-.78.615-.983.914 1.447-.689 1.71 2.625 1.141 3.69.09.329.391.45.514.735l-.086.166h1.29c.013 0 .03 0 .044.014zm-6.634-.012c-.05-.074-.1-.135-.15-.209l-.301.195h.45zm2.77 0c.008-.209.018-.404.03-.598-.53.029-.825-.48-1.196-.527-.324-.045-.6.361-1.02.195-.095.105-.183.227-.284.316.154.18.295.375.424.584h.815c.014-.164.135-.285.3-.285.165 0 .284.121.284.27h.66zm2.116 0c-.314-.479-.947-.898-1.68-.555l-.03.541h1.71zm-8.51 0l-.104-.344c-.225-.72-.36-1.26-.405-1.68-.914-.436-1.875-.87-2.654-1.426-.15-.105-1.109-1.35-1.23-1.305-1.739.676-3.359 1.86-4.814 2.984.256.557.48 1.141.69 1.74h8.505zm8.265-2.113c-.029-.512-.164-1.56-.48-1.74-.66-.39-1.846.78-2.34.943.045.15.135.271.15.48.285-.074.645-.029.898.092-.299.03-.629.03-.824.164-.074.195.016.48-.029.764.69.197 1.5.303 2.385.332.164-.227.225-.645.211-1.082zm-4.08-.36c-.044.375.046.51.12.943 1.26.391 1.034-1.74-.135-.959zM8.76 19.5c-.45.457 1.27 1.082 1.814 1.115 0-.29.165-.564.135-.77-.65-.118-1.502-.042-1.945-.347zm5.565.215c0 .043-.061.03-.068.064.58.451 1.014.545 1.802.51.354-.262.67-.563 1.043-.807-.855.074-1.931.607-2.774.23zm3.42-17.726c-1.606-.906-4.35-1.591-6.076-.731-1.38.692-3.27 1.84-3.899 3.292.6 1.402-.166 2.686-.226 4.109-.018.757.36 1.42.391 2.242-.2.338-.825.38-1.26.356-.146-.729-.4-1.549-1.155-1.63-1.064-.116-1.845.764-1.89 1.683-.06 1.08.833 2.864 2.085 2.745.488-.046.608-.54 1.139-.54.285.57-.445.75-.523 1.154-.016.105.06.511.104.705.233.944.744 2.16 1.245 2.88.635.9 1.884 1.051 3.229 1.141.24-.525 1.125-.48 1.706-.346-.691-.27-1.336-.945-1.875-1.529-.615-.676-1.23-1.41-1.261-2.28 1.155 1.604 2.1 3 4.2 3.704 1.59.525 3.45-.254 4.664-1.109.51-.359.811-.93 1.17-1.439 1.35-1.936 1.98-4.71 1.846-7.394-.06-1.111-.06-2.221-.436-2.955-.389-.781-1.695-1.471-2.475-.781-.15-.764.63-1.23 1.545-.96-.66-.854-1.336-1.858-2.266-2.384zM13.58 14.896c.615 1.544 2.724 1.363 4.505 1.323-.084.194-.256.435-.465.515-.57.232-2.145.408-2.937-.012-.506-.27-.824-.873-1.102-1.227-.137-.172-.795-.608-.012-.609zm.164-.87c.893.464 2.52.517 3.731.48.066.267.066.593.068.913-1.55.08-3.386-.304-3.794-1.395h-.005zm6.675-.586c-.473.9-1.145 1.897-2.539 1.928-.023-.284-.045-.735 0-.904 1.064-.103 1.727-.646 2.543-1.017zm-.649-.667c-1.02.66-2.154 1.375-3.824 1.21-.351-.31-.485-1-.14-1.458.181.313.06.885.57.97.944.165 2.038-.579 2.73-.84.42-.713-.046-.976-.42-1.433-.782-.93-1.83-2.1-1.802-3.51.314-.224.346.346.391.45.404.96 1.424 2.175 2.174 3 .18.21.48.39.51.524.092.39-.254.854-.209 1.11zm-13.439-.675c-.314-.184-.393-.99-.768-1.01-.535-.03-.438 1.05-.436 1.68-.37-.33-.435-1.365-.164-1.89-.308-.15-.445.164-.618.284.22-1.59 2.34-.734 1.99.96zM4.713 5.995c-.685.756-.54 2.174-.459 3.188 1.244-.785 2.898.06 2.883 1.394.595-.016.223-.744.115-1.215-.353-1.528.592-3.187.041-4.59-1.064.084-1.939.52-2.578 1.215zm9.12 1.113c.307.562.404 1.148.84 1.57.195.19.574.424.387.95-.045.121-.365.391-.551.45-.674.195-2.254.03-1.721-.81.563.015 1.314.36 1.732-.045-.314-.524-.885-1.53-.674-2.13zm6.198-.013h.068c.33.668.6 1.375 1.004 1.965-.27.628-2.053 1.19-2.023.057.39-.17 1.05-.035 1.395-.25-.193-.556-.48-1.006-.434-1.771zm-6.927-1.617c-1.422-.33-2.131.592-2.56 1.553-.384-.094-.231-.615-.135-.883.255-.701 1.28-1.633 2.119-1.506.359.057.848.386.576.834zM9.642 1.593c-1.56.44-3.56 1.574-4.2 2.974.495-.07.84-.321 1.33-.351.186-.016.428.074.641.015.424-.104.78-1.065 1.102-1.41.31-.345.685-.496.94-.81.167-.09.409-.074.42-.33-.073-.075-.15-.135-.232-.105v.017z"/></symbol><symbol id="ic-maven" viewBox="0 0 24 24"><path d="M4.237.001c-.312-.013-.665.072-.828.457-.158.374-.283 1.188-.34 2.276l1.223.591c-.02-.737.007-1.43.076-2.066-.026.299-.056.96.006 2.039.019.342.049.725.088 1.15.002.024.002.047.007.069a45.485 45.485 0 0 0 .309 2.412c.057.368.126.752.195 1.16l-.01.01c.014.01.015.018.014.023l.03.16c.03.162.06.328.093.494l.108.553.056.289a61.72 61.72 0 0 0 .457 2.068c.09.382.186.78.287 1.186.098.386.199.783.309 1.193.096.362.199.735.303 1.117.003.018.012.036.015.055a145.826 145.826 0 0 0 .34 1.185l.049.174c.078.261.158.533.242.805a4.2 4.2 0 0 1-.293-.135l-.19-.654c-.02-.077-.042-.148-.062-.225l-.002-.004-.004-.002c-.087-.3-.17-.607-.257-.916-.023-.087-.044-.173-.069-.263l-.314-1.178c-.1-.381-.194-.765-.29-1.154-.094-.39-.185-.78-.277-1.172-.093-.401-.181-.8-.265-1.203-.085-.396-.161-.798-.24-1.193a50.315 50.315 0 0 1-.211-1.17c-.004-.013-.006-.03-.01-.041l.004-.002c-.057-.386-.116-.77-.174-1.15a60.905 60.905 0 0 1-.154-1.204 27.447 27.447 0 0 1-.172-2.41l-1.22-.59c-.004.074-.01.15-.013.23-.012.294-.02.605-.023.93a45.3 45.3 0 0 0 .006 1.157c.009.37.025.755.045 1.148.02.336.042.675.07 1.022l.002.039.006.004c.003.023.007.05.006.076.033.368.064.739.107 1.115a34.493 34.493 0 0 0 .303 2.125c.01.064.024.131.035.195a23.418 23.418 0 0 0 .547 2.32c.07.237.14.464.21.68.063.182.13.365.194.545.155.422.327.832.512 1.232l.006.004a.318.318 0 0 0 .02.05c.225.485.475.95.755 1.395.01.013.02.033.03.047-.455-.183-1.259-.098-1.253-.097.83.288 1.557.64 2.016 1.175-.183.2-.523.352-.953.477.594.064.924-.039 1.045-.092-.31.26-.483.732-.635 1.24.35-.57.696-.949 1.033-1.094.078.258.162.524.244.788A147.532 147.532 0 0 0 5.157 24a.56.56 0 0 0 .43-.312c.13-.282.83-1.775 1.908-3.875.413 1.303.88 2.679 1.386 4.109a.494.494 0 0 0 .076-.465 103.735 103.735 0 0 1-1.308-3.945c.154-.299.316-.612.484-.932.125.04.255.094.389.155.203.186.352.491.482.84a1.515 1.515 0 0 0-.334-1.098c1.335.258 2.547.09 3.287-.81a3.97 3.97 0 0 0 .192-.258c-.325.304-.682.404-1.313.273.996-.281 1.523-.617 2.035-1.22.12-.145.244-.303.371-.48-.943.722-1.927.822-2.9.493l-.045-.018c.914.02 2.203-.474 3.092-1.189.41-.33.796-.73 1.17-1.21.28-.359.55-.76.82-1.216.234-.393.468-.824.7-1.293a2.83 2.83 0 0 1-.74.137l-.144.008c-.048.002-.093 0-.146.002.885-.198 1.5-.74 1.994-1.447-.24.117-.628.262-1.07.297-.058.006-.12.006-.182.006-.013-.002-.028 0-.047-.002.306-.078.574-.178.81-.309a3.363 3.363 0 0 0 .358-.236c.044-.037.088-.07.13-.106.099-.086.193-.18.28-.287.028-.034.056-.063.08-.098.036-.05.073-.098.104-.146a8.388 8.388 0 0 0 .51-.828c.015-.031.032-.057.046-.088.04-.084.08-.16.11-.227.042-.099.074-.179.092-.238a.515.515 0 0 1-.108.051c-.273.112-.727.187-1.086.201-.004 0-.008 0-.013.004h-.067c.72-.214 1.067-.45 1.422-.818a13.883 13.883 0 0 0 1.154-1.428c.264-.37.505-.738.692-1.072a6.5 6.5 0 0 0 .298-.592c.066-.157.122-.305.172-.45-.466.01-.986.011-1.48 0 .495.01 1.015.007 1.484-.005.5-1.485.063-2.262.063-2.262s-.526-1.212-1.4-.851c-.426.175-1.172.73-2.083 1.56l.514 1.45a17.561 17.561 0 0 1 1.703-1.602c-.257.22-.807.726-1.615 1.644-.256.29-.537.624-.844.997-.017.02-.035.038-.047.06a51.435 51.435 0 0 0-1.666 2.187c-.248.34-.498.704-.765 1.088h-.016c.002.02-.004.028-.01.032l-.101.152c-.104.155-.213.31-.318.47l-.352.534c-.061.09-.124.181-.186.277-.184.282-.367.573-.558.873a97.351 97.351 0 0 0-1.428 2.338 96.866 96.866 0 0 0-1.341 2.343c-.012.017-.02.04-.034.057a197.256 197.256 0 0 0-.668 1.223l-.097.181c-.17.318-.346.642-.52.979 0 .004-.005.008-.006.013-.026.048-.05.093-.072.141-.117.222-.218.424-.45.87a1.352 1.352 0 0 0-.233-.182l.345-.65c.047-.089.096-.177.143-.27l.04-.077.546-1.001.13-.233v-.006l-.001-.006c.169-.31.345-.62.52-.94.051-.087.102-.173.153-.265.224-.395.454-.794.684-1.197a91.685 91.685 0 0 1 2.135-3.504c.247-.386.503-.77.754-1.152.092-.138.182-.272.279-.41a72.9 72.9 0 0 1 .48-.701c.007-.012.019-.024.026-.037h.006c.26-.356.517-.713.773-1.065.278-.373.554-.735.83-1.09a31.075 31.075 0 0 1 1.777-2.075l-.515-1.446c-.06.057-.126.116-.192.178a32.37 32.37 0 0 0-.758.729c-.295.294-.597.606-.912.935a46.032 46.032 0 0 0-1.632 1.838l-.03.033.002.008c-.017.02-.033.044-.054.064-.266.323-.538.649-.801.985a39.105 39.105 0 0 0-1.445 1.95c-.043.06-.085.126-.127.186a26.458 26.458 0 0 0-1.403 2.303c-.13.247-.256.485-.37.715-.096.195-.187.395-.278.591-.21.463-.398.93-.566 1.399l.002.006a.36.36 0 0 0-.026.058c-.108.303-.203.608-.29.914-.14.174-.302.325-.483.46a3.505 3.505 0 0 0-.131-.153 5.148 5.148 0 0 0 .824-2.211 6.4 6.4 0 0 0-.016-1.488c-.046-.4-.126-.82-.238-1.274-.097-.393-.217-.81-.363-1.248-.091.185-.22.367-.379.545l-.086.094c-.029.032-.06.06-.092.094.434-.674.486-1.397.358-2.148a2.722 2.722 0 0 1-.49.85c-.033.038-.072.077-.11.116-.01.007-.019.018-.033.028.144-.24.25-.467.318-.698a1.29 1.29 0 0 0 .04-.146 2.85 2.85 0 0 0 .038-.225l.018-.146a2.11 2.11 0 0 0-.002-.354c-.003-.04-.004-.076-.01-.113-.01-.055-.016-.105-.027-.154a7.416 7.416 0 0 0-.193-.84c-.01-.028-.015-.056-.026-.084-.027-.079-.048-.149-.072-.209a2.1 2.1 0 0 0-.09-.209.455.455 0 0 1-.035.1c-.102.24-.34.57-.557.8-.003.003-.007.005-.007.01l-.04.043c.318-.58.39-.946.385-1.398a12.274 12.274 0 0 0-.16-1.615 10.68 10.68 0 0 0-.232-1.104 5.853 5.853 0 0 0-.18-.558 6.337 6.337 0 0 0-.172-.391 26.18 26.18 0 0 0 .002-.004C5.576.341 4.82.124 4.82.124s-.27-.11-.582-.123zm3.38 15.783l.032.082v.002c-.06.033-.116.067-.178.097-.012.004-.024.012-.039.018a2.41 2.41 0 0 0 .186-.2zm-.603 1.626c.13.136.25.242.354.32l.07.227a1.866 1.866 0 0 0-.246.053l-.03-.098c-.024-.084-.048-.17-.076-.257l-.021-.073zm.26.875a2.34 2.34 0 0 1 .271.01l.07.229a.778.778 0 0 1 .247-.004l-.326.627a127.643 127.643 0 0 1-.262-.862z"/></symbol><symbol id="ic-sql" viewBox="0 0 24 24"><path d="M16.405 5.501c-.115 0-.193.014-.274.033v.013h.014c.054.104.146.18.214.273.054.107.1.214.154.32l.014-.015c.094-.066.14-.172.14-.333-.04-.047-.046-.094-.08-.14-.04-.067-.126-.1-.18-.153zM5.77 18.695h-.927a50.854 50.854 0 00-.27-4.41h-.008l-1.41 4.41H2.45l-1.4-4.41h-.01a72.892 72.892 0 00-.195 4.41H0c.055-1.966.192-3.81.41-5.53h1.15l1.335 4.064h.008l1.347-4.064h1.095c.242 2.015.384 3.86.428 5.53zm4.017-4.08c-.378 2.045-.876 3.533-1.492 4.46-.482.716-1.01 1.073-1.583 1.073-.153 0-.34-.046-.566-.138v-.494c.11.017.24.026.386.026.268 0 .483-.075.647-.222.197-.18.295-.382.295-.605 0-.155-.077-.47-.23-.944L6.23 14.615h.91l.727 2.36c.164.536.233.91.205 1.123.4-1.064.678-2.227.835-3.483zm12.325 4.08h-2.63v-5.53h.885v4.85h1.745zm-3.32.135l-1.016-.5c.09-.076.177-.158.255-.25.433-.506.648-1.258.648-2.253 0-1.83-.718-2.746-2.155-2.746-.704 0-1.254.232-1.65.697-.43.508-.646 1.256-.646 2.245 0 .972.19 1.686.574 2.14.35.41.877.615 1.583.615.264 0 .506-.033.725-.098l1.325.772.36-.622zM15.5 17.588c-.225-.36-.337-.94-.337-1.736 0-1.393.424-2.09 1.27-2.09.443 0 .77.167.977.5.224.362.336.936.336 1.723 0 1.404-.424 2.108-1.27 2.108-.445 0-.77-.167-.978-.5zm-1.658-.425c0 .47-.172.856-.516 1.156-.344.3-.803.45-1.384.45-.543 0-1.064-.172-1.573-.515l.237-.476c.438.22.833.328 1.19.328.332 0 .593-.073.783-.22a.754.754 0 00.3-.615c0-.33-.23-.61-.648-.845-.388-.213-1.163-.657-1.163-.657-.422-.307-.632-.636-.632-1.177 0-.45.157-.81.47-1.085.315-.278.72-.415 1.22-.415.512 0 .98.136 1.4.41l-.213.476a2.726 2.726 0 00-1.064-.23c-.283 0-.502.068-.654.206a.685.685 0 00-.248.524c0 .328.234.61.666.85.393.215 1.187.67 1.187.67.433.305.648.63.648 1.168zm9.382-5.852c-.535-.014-.95.04-1.297.188-.1.04-.26.04-.274.167.055.053.063.14.11.214.08.134.218.313.346.407.14.11.28.216.427.31.26.16.555.255.81.416.145.094.293.213.44.313.073.05.12.14.214.172v-.02c-.046-.06-.06-.147-.105-.214-.067-.067-.134-.127-.2-.193a3.223 3.223 0 00-.695-.675c-.214-.146-.682-.35-.77-.595l-.013-.014c.146-.013.32-.066.46-.106.227-.06.435-.047.67-.106.106-.027.213-.06.32-.094v-.06c-.12-.12-.21-.283-.334-.395a8.867 8.867 0 00-1.104-.823c-.21-.134-.476-.22-.697-.334-.08-.04-.214-.06-.26-.127-.12-.146-.19-.34-.275-.514a17.69 17.69 0 01-.547-1.163c-.12-.262-.193-.523-.34-.763-.69-1.137-1.437-1.826-2.586-2.5-.247-.14-.543-.2-.856-.274-.167-.008-.334-.02-.5-.027-.11-.047-.216-.174-.31-.235-.38-.24-1.364-.76-1.644-.072-.18.434.267.862.422 1.082.115.153.26.328.34.5.047.116.06.235.107.356.106.294.207.622.347.897.073.14.153.287.247.413.054.073.146.107.167.227-.094.136-.1.334-.154.5-.24.757-.146 1.693.194 2.25.107.166.362.534.703.393.3-.12.234-.5.32-.835.02-.08.007-.133.048-.187v.015c.094.188.188.367.274.555.206.328.566.668.867.895.16.12.287.328.487.402v-.02h-.015c-.043-.058-.1-.086-.154-.133a3.445 3.445 0 01-.35-.4 8.76 8.76 0 01-.747-1.218c-.11-.21-.202-.436-.29-.643-.04-.08-.04-.2-.107-.24-.1.146-.247.273-.32.453-.127.288-.14.642-.188 1.01-.027.007-.014 0-.027.014-.214-.052-.287-.274-.367-.46-.2-.475-.233-1.238-.06-1.785.047-.14.247-.582.167-.716-.042-.127-.174-.2-.247-.303a2.478 2.478 0 01-.24-.427c-.16-.374-.24-.788-.414-1.162-.08-.173-.22-.354-.334-.513-.127-.18-.267-.307-.368-.52-.033-.073-.08-.194-.027-.274.014-.054.042-.075.094-.09.088-.072.335.022.422.062.247.1.455.194.662.334.094.066.195.193.315.226h.14c.214.047.455.014.655.073.355.114.675.28.962.46a5.953 5.953 0 012.085 2.286c.08.154.115.295.188.455.14.33.313.663.455.982.14.315.275.636.476.897.1.14.502.213.682.286.133.06.34.115.46.188.23.14.454.3.67.454.11.076.443.243.463.378z"/></symbol><symbol id="ic-python" viewBox="0 0 24 24"><path d="M14.25.18l.9.2.73.26.59.3.45.32.34.34.25.34.16.33.1.3.04.26.02.2-.01.13V8.5l-.05.63-.13.55-.21.46-.26.38-.3.31-.33.25-.35.19-.35.14-.33.1-.3.07-.26.04-.21.02H8.77l-.69.05-.59.14-.5.22-.41.27-.33.32-.27.35-.2.36-.15.37-.1.35-.07.32-.04.27-.02.21v3.06H3.17l-.21-.03-.28-.07-.32-.12-.35-.18-.36-.26-.36-.36-.35-.46-.32-.59-.28-.73-.21-.88-.14-1.05-.05-1.23.06-1.22.16-1.04.24-.87.32-.71.36-.57.4-.44.42-.33.42-.24.4-.16.36-.1.32-.05.24-.01h.16l.06.01h8.16v-.83H6.18l-.01-2.75-.02-.37.05-.34.11-.31.17-.28.25-.26.31-.23.38-.2.44-.18.51-.15.58-.12.64-.1.71-.06.77-.04.84-.02 1.27.05zm-6.3 1.98l-.23.33-.08.41.08.41.23.34.33.22.41.09.41-.09.33-.22.23-.34.08-.41-.08-.41-.23-.33-.33-.22-.41-.09-.41.09zm13.09 3.95l.28.06.32.12.35.18.36.27.36.35.35.47.32.59.28.73.21.88.14 1.04.05 1.23-.06 1.23-.16 1.04-.24.86-.32.71-.36.57-.4.45-.42.33-.42.24-.4.16-.36.09-.32.05-.24.02-.16-.01h-8.22v.82h5.84l.01 2.76.02.36-.05.34-.11.31-.17.29-.25.25-.31.24-.38.2-.44.17-.51.15-.58.13-.64.09-.71.07-.77.04-.84.01-1.27-.04-1.07-.14-.9-.2-.73-.25-.59-.3-.45-.33-.34-.34-.25-.34-.16-.33-.1-.3-.04-.25-.02-.2.01-.13v-5.34l.05-.64.13-.54.21-.46.26-.38.3-.32.33-.24.35-.2.35-.14.33-.1.3-.06.26-.04.21-.02.13-.01h5.84l.69-.05.59-.14.5-.21.41-.28.33-.32.27-.35.2-.36.15-.36.1-.35.07-.32.04-.28.02-.21V6.07h2.09l.14.01zm-6.47 14.25l-.23.33-.08.41.08.41.23.33.33.23.41.08.41-.08.33-.23.23-.33.08-.41-.08-.41-.23-.33-.33-.23-.41-.08-.41.08z"/></symbol><symbol id="ic-postman" viewBox="0 0 24 24"><path d="M13.527.099C6.955-.744.942 3.9.099 10.473c-.843 6.572 3.8 12.584 10.373 13.428 6.573.843 12.587-3.801 13.428-10.374C24.744 6.955 20.101.943 13.527.099zm2.471 7.485a.855.855 0 0 0-.593.25l-4.453 4.453-.307-.307-.643-.643c4.389-4.376 5.18-4.418 5.996-3.753zm-4.863 4.861l4.44-4.44a.62.62 0 1 1 .847.903l-4.699 4.125-.588-.588zm.33.694l-1.1.238a.06.06 0 0 1-.067-.032.06.06 0 0 1 .01-.073l.645-.645.512.512zm-2.803-.459l1.172-1.172.879.878-1.979.426a.074.074 0 0 1-.085-.039.072.072 0 0 1 .013-.093zm-3.646 6.058a.076.076 0 0 1-.069-.083.077.077 0 0 1 .022-.046h.002l.946-.946 1.222 1.222-2.123-.147zm2.425-1.256a.228.228 0 0 0-.117.256l.203.865a.125.125 0 0 1-.211.117h-.003l-.934-.934-.294-.295 3.762-3.758 1.82-.393.874.874c-1.255 1.102-2.971 2.201-5.1 3.268zm5.279-3.428h-.002l-.839-.839 4.699-4.125a.952.952 0 0 0 .119-.127c-.148 1.345-2.029 3.245-3.977 5.091zm3.657-6.46l-.003-.002a1.822 1.822 0 0 1 2.459-2.684l-1.61 1.613a.119.119 0 0 0 0 .169l1.247 1.247a1.817 1.817 0 0 1-2.093-.343zm2.578 0a1.714 1.714 0 0 1-.271.218h-.001l-1.207-1.207 1.533-1.533c.661.72.637 1.832-.054 2.522zM18.855 6.05a.143.143 0 0 0-.053.157.416.416 0 0 1-.053.45.14.14 0 0 0 .023.197.141.141 0 0 0 .084.03.14.14 0 0 0 .106-.05.691.691 0 0 0 .087-.751.138.138 0 0 0-.194-.033z"/></symbol><symbol id="ic-aws" viewBox="0 0 128 128"><path d="M108.59 26.148c-1.852 0-3.622.211-5.305.715-1.684.504-3.117 1.223-4.379 2.188a10.829 10.829 0 0 0-3.031 3.453c-.757 1.348-1.137 2.906-1.137 4.676 0 2.187.716 4.25 2.106 6.105 1.386 1.895 3.66 3.324 6.734 4.293l6.106 1.895c2.062.675 3.496 1.391 4.254 2.191.757.801 1.136 1.765 1.136 2.945 0 1.726-.758 3.074-2.191 4-1.43.925-3.492 1.391-6.145 1.391-1.687 0-3.328-.168-5.011-.504a23.102 23.102 0 0 1-4.633-1.476c-.421-.168-.801-.336-1.051-.418a2.357 2.357 0 0 0-.758-.13c-.634 0-.969.423-.969 1.305v2.149a2.919 2.919 0 0 0 .254 1.18c.168.38.629.8 1.305 1.18 1.094.628 2.734 1.179 4.84 1.683 2.105.504 4.297.758 6.484.758 2.15 0 4.129-.297 6.024-.883 1.808-.551 3.367-1.309 4.672-2.36 1.304-1.01 2.316-2.273 3.074-3.707.714-1.429 1.094-3.07 1.094-4.882 0-2.188-.633-4.168-1.938-5.895-1.304-1.727-3.491-3.074-6.523-4.043l-5.98-1.895c-2.23-.713-3.79-1.516-4.634-2.316-.84-.797-1.261-1.808-1.261-2.988 0-1.726.671-2.95 1.98-3.746 1.305-.801 3.199-1.18 5.598-1.18 2.988 0 5.683.547 8.086 1.64.714.337 1.261.508 1.597.508.633 0 .969-.463.969-1.347v-1.98c0-.59-.125-1.051-.379-1.391-.25-.378-.672-.715-1.262-1.051-.422-.254-1.011-.504-1.77-.758a32.528 32.528 0 0 0-2.398-.676c-.886-.168-1.769-.336-2.738-.46a21.347 21.347 0 0 0-2.82-.169zm-86.822.082c-2.316 0-4.508.254-6.57.801-2.063.505-3.831 1.137-5.303 1.895-.59.297-.97.59-1.18.883-.211.296-.293.8-.293 1.476v2.063c0 .882.293 1.304.883 1.304.168 0 .378-.043.674-.125.293-.086.796-.254 1.472-.547a33.416 33.416 0 0 1 4.547-1.433A19.176 19.176 0 0 1 20.547 32c3.242 0 5.513.633 6.863 1.938 1.304 1.303 1.98 3.534 1.98 6.734v3.074c-1.683-.379-3.283-.715-4.843-.926-1.558-.21-3.031-.336-4.461-.336-4.34 0-7.75 1.094-10.316 3.286-2.571 2.187-3.832 5.093-3.832 8.671 0 3.368 1.05 6.063 3.113 8.086 2.066 2.02 4.887 3.032 8.422 3.032 4.97 0 9.097-1.938 12.379-5.813a34.153 34.153 0 0 0 1.304 2.484 13.28 13.28 0 0 0 1.516 1.98c.422.38.844.59 1.266.59.334 0 .714-.128 1.093-.378l2.653-1.77c.546-.42.8-.843.8-1.261a1.86 1.86 0 0 0-.293-.97 22.469 22.469 0 0 1-1.347-3.03c-.297-.925-.465-2.19-.465-3.75h-.086V40c0-4.633-1.176-8.086-3.492-10.36-2.36-2.273-6.025-3.41-11.033-3.41zm19.58 1.012c-.676 0-1.012.379-1.012 1.051 0 .297.129.844.379 1.687l9.894 32.547c.254.8.547 1.387.887 1.641.336.297.84.422 1.598.422h3.62c.759 0 1.347-.125 1.684-.422.34-.293.591-.84.801-1.684l6.485-27.117 6.527 27.16c.168.84.46 1.387.8 1.684.337.292.883.422 1.684.422h3.621c.715 0 1.262-.167 1.598-.422.34-.253.633-.8.887-1.64L90.949 30.02c.168-.46.25-.797.293-1.051.043-.254.086-.466.086-.676 0-.715-.379-1.05-1.055-1.05H86.36c-.757 0-1.308.166-1.644.421-.293.25-.59.8-.84 1.64L76.59 57.517l-6.653-28.211c-.166-.8-.464-1.39-.8-1.64-.336-.298-.884-.423-1.684-.423h-3.367c-.758 0-1.348.167-1.688.422-.335.25-.588.8-.796 1.64l-6.57 27.876-7.075-27.875c-.25-.8-.504-1.39-.84-1.64-.297-.298-.844-.423-1.644-.423h-4.125zM21.64 47.496a31.816 31.816 0 0 1 3.96.25 34.401 34.401 0 0 1 3.872.719v1.765c0 1.435-.168 2.653-.422 3.665-.25 1.01-.758 1.895-1.43 2.695-1.137 1.262-2.484 2.187-4 2.695-1.516.504-2.949.758-4.336.758-1.937 0-3.41-.508-4.422-1.559-1.054-1.01-1.558-2.484-1.558-4.464 0-2.106.675-3.704 2.062-4.84 1.391-1.137 3.454-1.684 6.274-1.684zM118 73.348c-4.432.063-9.664 1.052-13.621 3.832-1.223.883-1.012 2.062.336 1.894 4.508-.547 14.44-1.726 16.21.547 1.77 2.23-1.976 11.62-3.663 15.79-.504 1.26.59 1.769 1.726.8 7.41-6.231 9.348-19.242 7.832-21.137-.757-.925-4.388-1.79-8.82-1.726zM1.63 75.859c-.926.116-1.347 1.236-.368 2.121 16.508 14.902 38.359 23.872 62.613 23.872 17.305 0 37.43-5.43 51.281-15.66 2.273-1.689.298-4.254-2.02-3.204-15.533 6.57-32.421 9.77-47.788 9.77-22.778 0-44.8-6.273-62.653-16.633-.39-.231-.755-.304-1.064-.266z"/></symbol><symbol id="ic-azure" viewBox="0 0 128 128"><path d="M46.09.002h40.685L44.541 125.137a6.485 6.485 0 01-6.146 4.413H6.733a6.482 6.482 0 01-5.262-2.699 6.474 6.474 0 01-.876-5.848L39.944 4.414A6.488 6.488 0 0146.09 0z" transform="translate(.587 4.468) scale(.91904)"/><path d="M97.28 81.607H37.987a2.743 2.743 0 00-1.874 4.751l38.1 35.562a5.991 5.991 0 004.087 1.61h33.574z"/><path d="M46.09.002A6.434 6.434 0 0039.93 4.5L.644 120.897a6.469 6.469 0 006.106 8.653h32.48a6.942 6.942 0 005.328-4.531l7.834-23.089 27.985 26.101a6.618 6.618 0 004.165 1.519h36.396l-15.963-45.616-46.533.011L86.922.002z" transform="translate(.587 4.468) scale(.91904)"/><path d="M98.055 4.408A6.476 6.476 0 0091.917.002H46.575a6.478 6.478 0 016.137 4.406l39.35 116.594a6.476 6.476 0 01-6.137 8.55h45.344a6.48 6.48 0 006.136-8.55z" transform="translate(.587 4.468) scale(.91904)"/></symbol>
    <linearGradient id="bg" x1="0" y1="0" x2="0" y2="1"><stop offset="0%" stop-color="#020617"/><stop offset="62%" stop-color="#1E3A8A"/><stop offset="100%" stop-color="#1E3A8A"/></linearGradient>
    <radialGradient id="glow" cx="50%" cy="40%" r="60%"><stop offset="0%" stop-color="#3B82F6" stop-opacity="0.18"/><stop offset="100%" stop-color="#3B82F6" stop-opacity="0"/></radialGradient>
    <linearGradient id="accent" x1="0" y1="0" x2="1" y2="0"><stop offset="0%" stop-color="#60A5FA"/><stop offset="100%" stop-color="#36C5F0"/></linearGradient>
    <clipPath id="rc"><rect width="1200" height="220" rx="18"/></clipPath>
  </defs>
  <rect width="1200" height="220" rx="18" fill="url(#bg)"/>
  <rect width="1200" height="220" rx="18" fill="url(#glow)"/>
  <g clip-path="url(#rc)">
  <g opacity="0.55"><path d="M 0 186.0 L 24 187.25 L 48 188.49 L 72 189.68 L 96 190.82 L 120 191.88 L 144 192.85 L 168 193.71 L 192 194.44 L 216 195.05 L 240 195.51 L 264 195.82 L 288 195.98 L 312 195.98 L 336 195.82 L 360 195.51 L 384 195.05 L 408 194.44 L 432 193.71 L 456 192.85 L 480 191.88 L 504 190.82 L 528 189.68 L 552 188.49 L 576 187.25 L 600 186.0 L 624 184.75 L 648 183.51 L 672 182.32 L 696 181.18 L 720 180.12 L 744 179.15 L 768 178.29 L 792 177.56 L 816 176.95 L 840 176.49 L 864 176.18 L 888 176.02 L 912 176.02 L 936 176.18 L 960 176.49 L 984 176.95 L 1008 177.56 L 1032 178.29 L 1056 179.15 L 1080 180.12 L 1104 181.18 L 1128 182.32 L 1152 183.51 L 1176 184.75 L 1200 186.0 L 1224 187.25 L 1248 188.49 L 1272 189.68 L 1296 190.82 L 1320 191.88 L 1344 192.85 L 1368 193.71 L 1392 194.44 L 1416 195.05 L 1440 195.51 L 1464 195.82 L 1488 195.98 L 1512 195.98 L 1536 195.82 L 1560 195.51 L 1584 195.05 L 1608 194.44 L 1632 193.71 L 1656 192.85 L 1680 191.88 L 1704 190.82 L 1728 189.68 L 1752 188.49 L 1776 187.25 L 1800 186.0 L 1824 184.75 L 1848 183.51 L 1872 182.32 L 1896 181.18 L 1920 180.12 L 1944 179.15 L 1968 178.29 L 1992 177.56 L 2016 176.95 L 2040 176.49 L 2064 176.18 L 2088 176.02 L 2112 176.02 L 2136 176.18 L 2160 176.49 L 2184 176.95 L 2208 177.56 L 2232 178.29 L 2256 179.15 L 2280 180.12 L 2304 181.18 L 2328 182.32 L 2352 183.51 L 2376 184.75 L 2400 186.0 L 2424 187.25 L 2400 220 L 0 220 Z" fill="#13245C"/><animateTransform attributeName="transform" type="translate" values="0 0; -1200 0" dur="14s" begin="0.0s" repeatCount="indefinite"/></g>
  <g opacity="0.55"><path d="M 0 196.0 L 24 197.0 L 48 197.99 L 72 198.94 L 96 199.85 L 120 200.7 L 144 201.48 L 168 202.16 L 192 202.75 L 216 203.24 L 240 203.61 L 264 203.86 L 288 203.98 L 312 203.98 L 336 203.86 L 360 203.61 L 384 203.24 L 408 202.75 L 432 202.16 L 456 201.48 L 480 200.7 L 504 199.85 L 528 198.94 L 552 197.99 L 576 197.0 L 600 196.0 L 624 195.0 L 648 194.01 L 672 193.06 L 696 192.15 L 720 191.3 L 744 190.52 L 768 189.84 L 792 189.25 L 816 188.76 L 840 188.39 L 864 188.14 L 888 188.02 L 912 188.02 L 936 188.14 L 960 188.39 L 984 188.76 L 1008 189.25 L 1032 189.84 L 1056 190.52 L 1080 191.3 L 1104 192.15 L 1128 193.06 L 1152 194.01 L 1176 195.0 L 1200 196.0 L 1224 197.0 L 1248 197.99 L 1272 198.94 L 1296 199.85 L 1320 200.7 L 1344 201.48 L 1368 202.16 L 1392 202.75 L 1416 203.24 L 1440 203.61 L 1464 203.86 L 1488 203.98 L 1512 203.98 L 1536 203.86 L 1560 203.61 L 1584 203.24 L 1608 202.75 L 1632 202.16 L 1656 201.48 L 1680 200.7 L 1704 199.85 L 1728 198.94 L 1752 197.99 L 1776 197.0 L 1800 196.0 L 1824 195.0 L 1848 194.01 L 1872 193.06 L 1896 192.15 L 1920 191.3 L 1944 190.52 L 1968 189.84 L 1992 189.25 L 2016 188.76 L 2040 188.39 L 2064 188.14 L 2088 188.02 L 2112 188.02 L 2136 188.14 L 2160 188.39 L 2184 188.76 L 2208 189.25 L 2232 189.84 L 2256 190.52 L 2280 191.3 L 2304 192.15 L 2328 193.06 L 2352 194.01 L 2376 195.0 L 2400 196.0 L 2424 197.0 L 2400 220 L 0 220 Z" fill="#1E3A8A"/><animateTransform attributeName="transform" type="translate" values="0 0; -1200 0" dur="11s" begin="0.6s" repeatCount="indefinite"/></g>
  <g opacity="0.45"><path d="M 0 206.0 L 24 206.75 L 48 207.49 L 72 208.21 L 96 208.89 L 120 209.53 L 144 210.11 L 168 210.62 L 192 211.07 L 216 211.43 L 240 211.71 L 264 211.89 L 288 211.99 L 312 211.99 L 336 211.89 L 360 211.71 L 384 211.43 L 408 211.07 L 432 210.62 L 456 210.11 L 480 209.53 L 504 208.89 L 528 208.21 L 552 207.49 L 576 206.75 L 600 206.0 L 624 205.25 L 648 204.51 L 672 203.79 L 696 203.11 L 720 202.47 L 744 201.89 L 768 201.38 L 792 200.93 L 816 200.57 L 840 200.29 L 864 200.11 L 888 200.01 L 912 200.01 L 936 200.11 L 960 200.29 L 984 200.57 L 1008 200.93 L 1032 201.38 L 1056 201.89 L 1080 202.47 L 1104 203.11 L 1128 203.79 L 1152 204.51 L 1176 205.25 L 1200 206.0 L 1224 206.75 L 1248 207.49 L 1272 208.21 L 1296 208.89 L 1320 209.53 L 1344 210.11 L 1368 210.62 L 1392 211.07 L 1416 211.43 L 1440 211.71 L 1464 211.89 L 1488 211.99 L 1512 211.99 L 1536 211.89 L 1560 211.71 L 1584 211.43 L 1608 211.07 L 1632 210.62 L 1656 210.11 L 1680 209.53 L 1704 208.89 L 1728 208.21 L 1752 207.49 L 1776 206.75 L 1800 206.0 L 1824 205.25 L 1848 204.51 L 1872 203.79 L 1896 203.11 L 1920 202.47 L 1944 201.89 L 1968 201.38 L 1992 200.93 L 2016 200.57 L 2040 200.29 L 2064 200.11 L 2088 200.01 L 2112 200.01 L 2136 200.11 L 2160 200.29 L 2184 200.57 L 2208 200.93 L 2232 201.38 L 2256 201.89 L 2280 202.47 L 2304 203.11 L 2328 203.79 L 2352 204.51 L 2376 205.25 L 2400 206.0 L 2424 206.75 L 2400 220 L 0 220 Z" fill="#2B4DA8"/><animateTransform attributeName="transform" type="translate" values="0 0; -1200 0" dur="9s" begin="1.1s" repeatCount="indefinite"/></g>
  </g>
  <rect x="0.5" y="0.5" width="1199" height="219" rx="18" fill="none" stroke="#3B82F6" stroke-opacity="0.30"/>
  <g opacity="0.42"><g><use href="#ic-selenium" width="72" height="72.0" fill="#43B02A" transform="translate(34 38)"/><animateTransform attributeName="transform" type="translate" values="0 0; 0 -15; 0 0" keyTimes="0;0.5;1" dur="6.0s" begin="0.0s" repeatCount="indefinite" calcMode="spline" keySplines="0.45 0 0.55 1; 0.45 0 0.55 1"/></g></g>
  <g opacity="0.3"><g><use href="#ic-postman" width="46" height="46.0" fill="#FF6C37" transform="translate(150 42)"/><animateTransform attributeName="transform" type="translate" values="0 0; 0 -16; 0 0" keyTimes="0;0.5;1" dur="6.8s" begin="1.2s" repeatCount="indefinite" calcMode="spline" keySplines="0.45 0 0.55 1; 0.45 0 0.55 1"/></g></g>
  <g opacity="0.3"><g><use href="#ic-playwright" width="46" height="46.0" fill="#2EAD33" transform="translate(210 100)"/><animateTransform attributeName="transform" type="translate" values="0 0; 0 -15; 0 0" keyTimes="0;0.5;1" dur="7.2s" begin="0.6s" repeatCount="indefinite" calcMode="spline" keySplines="0.45 0 0.55 1; 0.45 0 0.55 1"/></g></g>
  <g opacity="0.24"><g><use href="#ic-jenkins" width="40" height="40.0" fill="#D33833" transform="translate(40 110)"/><animateTransform attributeName="transform" type="translate" values="0 0; 0 -13; 0 0" keyTimes="0;0.5;1" dur="9.0s" begin="0.9s" repeatCount="indefinite" calcMode="spline" keySplines="0.45 0 0.55 1; 0.45 0 0.55 1"/></g></g>
  <g opacity="0.28"><g><use href="#ic-python" width="42" height="42.0" fill="#4B8BBE" transform="translate(120 150)"/><animateTransform attributeName="transform" type="translate" values="0 0; 0 -12; 0 0" keyTimes="0;0.5;1" dur="8.0s" begin="2.0s" repeatCount="indefinite" calcMode="spline" keySplines="0.45 0 0.55 1; 0.45 0 0.55 1"/></g></g>
  <g opacity="0.26"><g><use href="#ic-git" width="40" height="40.0" fill="#F05032" transform="translate(214 158)"/><animateTransform attributeName="transform" type="translate" values="0 0; 0 -15; 0 0" keyTimes="0;0.5;1" dur="7.0s" begin="1.6s" repeatCount="indefinite" calcMode="spline" keySplines="0.45 0 0.55 1; 0.45 0 0.55 1"/></g></g>
  <g opacity="0.22"><g><use href="#ic-github" width="38" height="38.0" fill="#C9D1D9" transform="translate(34 150)"/><animateTransform attributeName="transform" type="translate" values="0 0; 0 -11; 0 0" keyTimes="0;0.5;1" dur="8.5s" begin="0.3s" repeatCount="indefinite" calcMode="spline" keySplines="0.45 0 0.55 1; 0.45 0 0.55 1"/></g></g>
  <g opacity="0.4"><g><use href="#ic-java" width="58" height="58.0" fill="#ED8B00" transform="translate(950 48)"/><animateTransform attributeName="transform" type="translate" values="0 0; 0 -16; 0 0" keyTimes="0;0.5;1" dur="6.2s" begin="0.4s" repeatCount="indefinite" calcMode="spline" keySplines="0.45 0 0.55 1; 0.45 0 0.55 1"/></g></g>
  <g opacity="0.42"><g><use href="#ic-typescript" width="62" height="62.0" fill="#3178C6" transform="translate(1092 44)"/><animateTransform attributeName="transform" type="translate" values="0 0; 0 -18; 0 0" keyTimes="0;0.5;1" dur="6.6s" begin="0.0s" repeatCount="indefinite" calcMode="spline" keySplines="0.45 0 0.55 1; 0.45 0 0.55 1"/></g></g>
  <g opacity="0.32"><g><use href="#ic-azure" width="50" height="50.0" fill="#3B82F6" transform="translate(1016 110)"/><animateTransform attributeName="transform" type="translate" values="0 0; 0 -15; 0 0" keyTimes="0;0.5;1" dur="7.4s" begin="1.3s" repeatCount="indefinite" calcMode="spline" keySplines="0.45 0 0.55 1; 0.45 0 0.55 1"/></g></g>
  <g opacity="0.26"><g><use href="#ic-sql" width="40" height="40.0" fill="#4479A1" transform="translate(904 120)"/><animateTransform attributeName="transform" type="translate" values="0 0; 0 -13; 0 0" keyTimes="0;0.5;1" dur="8.4s" begin="1.5s" repeatCount="indefinite" calcMode="spline" keySplines="0.45 0 0.55 1; 0.45 0 0.55 1"/></g></g>
  <g opacity="0.22"><g><use href="#ic-maven" width="34" height="34.0" fill="#C71A36" transform="translate(1132 104)"/><animateTransform attributeName="transform" type="translate" values="0 0; 0 -15; 0 0" keyTimes="0;0.5;1" dur="7.8s" begin="1.0s" repeatCount="indefinite" calcMode="spline" keySplines="0.45 0 0.55 1; 0.45 0 0.55 1"/></g></g>
  <g opacity="0.3"><g><use href="#ic-claude" width="40" height="40.0" fill="#D97757" transform="translate(958 152)"/><animateTransform attributeName="transform" type="translate" values="0 0; 0 -14; 0 0" keyTimes="0;0.5;1" dur="7.6s" begin="0.7s" repeatCount="indefinite" calcMode="spline" keySplines="0.45 0 0.55 1; 0.45 0 0.55 1"/></g></g>
  <g opacity="0.24"><g><use href="#ic-copilot" width="34" height="34.0" fill="#C9D1D9" transform="translate(1044 166)"/><animateTransform attributeName="transform" type="translate" values="0 0; 0 -12; 0 0" keyTimes="0;0.5;1" dur="9.0s" begin="2.1s" repeatCount="indefinite" calcMode="spline" keySplines="0.45 0 0.55 1; 0.45 0 0.55 1"/></g></g>
  <g opacity="0.3"><g><use href="#ic-aws" width="58" height="58.0" fill="#FF9900" transform="translate(1096 168)"/><animateTransform attributeName="transform" type="translate" values="0 0; 0 -14; 0 0" keyTimes="0;0.5;1" dur="8.2s" begin="1.8s" repeatCount="indefinite" calcMode="spline" keySplines="0.45 0 0.55 1; 0.45 0 0.55 1"/></g></g>
  <g text-anchor="middle" font-family="Segoe UI, Helvetica, Arial, sans-serif">
    <text x="600" y="104" font-size="50" font-weight="700" fill="#FFFFFF" letter-spacing="1">Rajesh Reddy Komma<animate attributeName="opacity" values="0;1" dur="1.2s" begin="0s" fill="freeze"/></text>
    <text x="600" y="146" font-size="21" font-weight="500" fill="#9FB3C8" letter-spacing="2">SDET&#160;&#160;|&#160;&#160;QA Automation Engineer<animate attributeName="opacity" values="0;1" dur="1.6s" begin="0.3s" fill="freeze"/></text>
    <rect x="540" y="162" width="120" height="3" rx="1.5" fill="url(#accent)"><animate attributeName="width" values="0;120" dur="1s" begin="0.6s" fill="freeze"/><animate attributeName="x" values="600;540" dur="1s" begin="0.6s" fill="freeze"/></rect>
  </g>
</svg>